<?xml version="1.0" encoding="UTF-8" standalone="no"?>
<!DOCTYPE svg PUBLIC "-//W3C//DTD SVG 1.1//EN" "http://www.w3.org/Graphics/SVG/1.1/DTD/svg11.dtd">
<!-- Microsoft Visio, SVG Export에서 생성되었습니다. multicycle_path.vsdx.multicycle.svg multicycle -->
<svg xmlns="http://www.w3.org/2000/svg" xmlns:xlink="http://www.w3.org/1999/xlink" xmlns:ev="http://www.w3.org/2001/xml-events"
		xmlns:v="http://schemas.microsoft.com/visio/2003/SVGExtensions/" width="2.99213in" height="2.16535in"
		viewBox="0 0 215.433 155.906" xml:space="preserve" color-interpolation-filters="sRGB" class="st33">
	<v:documentProperties v:langID="1042" v:metric="true" v:viewMarkup="false">
		<v:userDefs>
			<v:ud v:nameU="msvConvertTheme"/>
		</v:userDefs>
	</v:documentProperties>

	<style type="text/css">
	<![CDATA[
		.st1 {marker-end:url(#mrkr5-6);stroke:#000000;stroke-linecap:round;stroke-linejoin:round;stroke-width:0.72}
		.st2 {fill:#000000;fill-opacity:1;stroke:#000000;stroke-opacity:1;stroke-width:0.33333333333333}
		.st3 {marker-end:url(#mrkr5-12);stroke:#00b050;stroke-linecap:round;stroke-linejoin:round;stroke-width:0.72}
		.st4 {fill:#00b050;fill-opacity:1;stroke:#00b050;stroke-opacity:1;stroke-width:0.33333333333333}
		.st5 {marker-end:url(#mrkr5-18);stroke:#ff0000;stroke-linecap:round;stroke-linejoin:round;stroke-width:0.72}
		.st6 {fill:#ff0000;fill-opacity:1;stroke:#ff0000;stroke-opacity:1;stroke-width:0.33333333333333}
		.st7 {stroke:#000000;stroke-linecap:round;stroke-linejoin:round;stroke-width:0.72}
		.st8 {fill:none;stroke:none;stroke-linecap:round;stroke-linejoin:round;stroke-width:1.2}
		.st9 {fill:#000000;font-family:Arial;font-size:0.416656em;font-weight:bold}
		.st10 {marker-end:url(#mrkr4-39);stroke:#000000;stroke-linecap:round;stroke-linejoin:round;stroke-width:0.72}
		.st11 {fill:#ffffff;stroke:#000000;stroke-linecap:round;stroke-linejoin:round;stroke-width:0.72}
		.st12 {fill:#000000;font-family:Arial;font-size:0.333344em;font-weight:bold}
		.st13 {fill:#000000;font-family:Arial;font-size:0.250008em;font-weight:bold}
		.st14 {fill:#ff0000;font-family:Arial;font-size:0.250008em;font-weight:bold}
		.st15 {font-size:1em}
		.st16 {fill:none;stroke:#000000;stroke-dasharray:0.72,0.72;stroke-linecap:round;stroke-linejoin:round;stroke-width:0.24}
		.st17 {fill:none;stroke:#ff0000;stroke-dasharray:0.72,0.72;stroke-linecap:round;stroke-linejoin:round;stroke-width:0.24}
		.st18 {fill:none;stroke:none;stroke-linecap:round;stroke-linejoin:round;stroke-width:0.72}
		.st19 {font-family:Wingdings;font-size:1em}
		.st20 {font-size:1em;text-decoration:underline}
		.st21 {fill:#000000;font-size:1em}
		.st22 {stroke:#000000;stroke-linecap:round;stroke-linejoin:round;stroke-width:0.24}
		.st23 {font-size:0.600033em}
		.st24 {fill:#0000ff;font-size:0.600033em}
		.st25 {fill:#ff0000;font-size:0.600033em}
		.st26 {marker-end:url(#mrkr5-255);marker-start:url(#mrkr5-253);stroke:#000000;stroke-linecap:round;stroke-linejoin:round;stroke-width:0.24}
		.st27 {fill:#000000;fill-opacity:1;stroke:#000000;stroke-opacity:1;stroke-width:0.14285714285714}
		.st28 {fill:#00b050;font-family:Arial;font-size:0.250008em;font-weight:bold}
		.st29 {marker-start:url(#mrkr5-283);stroke:#000000;stroke-linecap:round;stroke-linejoin:round;stroke-width:0.72}
		.st30 {fill:#0000ff;font-family:Arial;font-size:0.250008em;font-weight:bold}
		.st31 {marker-end:url(#mrkr5-298);stroke:#0000ff;stroke-linecap:round;stroke-linejoin:round;stroke-width:0.72}
		.st32 {fill:#0000ff;fill-opacity:1;stroke:#0000ff;stroke-opacity:1;stroke-width:0.33333333333333}
		.st33 {fill:none;fill-rule:evenodd;font-size:12px;overflow:visible;stroke-linecap:square;stroke-miterlimit:3}
	]]>
	</style>

	<defs id="Markers">
		<g id="lend5">
			<path d="M 2 1 L 0 0 L 1.98117 -0.993387 C 1.67173 -0.364515 1.67301 0.372641 1.98465 1.00043 " style="stroke:none"/>
		</g>
		<marker id="mrkr5-6" class="st2" v:arrowType="5" v:arrowSize="0" v:setback="5.25" refX="-5.25" orient="auto"
				markerUnits="strokeWidth" overflow="visible">
			<use xlink:href="#lend5" transform="scale(-3,-3) "/>
		</marker>
		<marker id="mrkr5-12" class="st4" v:arrowType="5" v:arrowSize="0" v:setback="5.25" refX="-5.25" orient="auto"
				markerUnits="strokeWidth" overflow="visible">
			<use xlink:href="#lend5" transform="scale(-3,-3) "/>
		</marker>
		<marker id="mrkr5-18" class="st6" v:arrowType="5" v:arrowSize="0" v:setback="5.25" refX="-5.25" orient="auto"
				markerUnits="strokeWidth" overflow="visible">
			<use xlink:href="#lend5" transform="scale(-3,-3) "/>
		</marker>
		<g id="lend4">
			<path d="M 2 1 L 0 0 L 2 -1 L 2 1 " style="stroke:none"/>
		</g>
		<marker id="mrkr4-39" class="st2" v:arrowType="4" v:arrowSize="0" v:setback="6" refX="-6" orient="auto"
				markerUnits="strokeWidth" overflow="visible">
			<use xlink:href="#lend4" transform="scale(-3,-3) "/>
		</marker>
		<marker id="mrkr5-253" class="st27" v:arrowType="5" v:arrowSize="0" v:setback="10.75" refX="10.75" orient="auto"
				markerUnits="strokeWidth" overflow="visible">
			<use xlink:href="#lend5" transform="scale(7) "/>
		</marker>
		<marker id="mrkr5-255" class="st27" v:arrowType="5" v:arrowSize="0" v:setback="12.25" refX="-12.25" orient="auto"
				markerUnits="strokeWidth" overflow="visible">
			<use xlink:href="#lend5" transform="scale(-7,-7) "/>
		</marker>
		<marker id="mrkr5-283" class="st2" v:arrowType="5" v:arrowSize="0" v:setback="4.75" refX="4.75" orient="auto"
				markerUnits="strokeWidth" overflow="visible">
			<use xlink:href="#lend5" transform="scale(3) "/>
		</marker>
		<marker id="mrkr5-298" class="st32" v:arrowType="5" v:arrowSize="0" v:setback="5.25" refX="-5.25" orient="auto"
				markerUnits="strokeWidth" overflow="visible">
			<use xlink:href="#lend5" transform="scale(-3,-3) "/>
		</marker>
	</defs>
	<g v:mID="4" v:index="2" v:groupContext="foregroundPage">
		<title>multicycle</title>
		<v:pageProperties v:drawingScale="0.0393701" v:pageScale="0.0393701" v:drawingUnits="24" v:shadowOffsetX="8.50394"
				v:shadowOffsetY="-8.50394"/>
		<g id="shape1-1" v:mID="1" v:groupContext="shape" transform="translate(130.394,-41.1024)">
			<title>시트.1</title>
			<path d="M26.93 153.07 A2.83465 2.83465 90 0 1 24.09 155.91 L3.78 155.91" class="st1"/>
		</g>
		<g id="shape2-7" v:mID="2" v:groupContext="shape" transform="translate(83.622,-56.693)">
			<title>시트.2</title>
			<path d="M0 103.46 L87.87 103.46 A2.83464 2.83465 0 0 1 90.71 106.3 L90.71 152.13" class="st3"/>
		</g>
		<g id="shape3-13" v:mID="3" v:groupContext="shape" transform="translate(63.7795,-41.1024)">
			<title>시트.3</title>
			<path d="M0 136.06 L90.71 136.06 A2.83465 2.83465 -0 0 1 93.54 138.9 L93.54 153.07 A2.83465 2.83465 -180 0 0 96.38 155.91
						 L105.35 155.91" class="st5"/>
		</g>
		<g id="shape4-19" v:mID="4" v:groupContext="shape" transform="translate(194.173,15.5905) rotate(90)">
			<title>시트.4</title>
			<path d="M0 155.91 L34.02 155.91" class="st7"/>
		</g>
		<g id="shape5-22" v:mID="5" v:groupContext="shape" transform="translate(32.5984,-140.315)">
			<title>시트.5</title>
			<desc>F/F</desc>
			<v:textBlock v:margins="rect(0,0,0,0)" v:tabSpace="42.5197"/>
			<v:textRect cx="5.66929" cy="153.071" width="11.34" height="5.66929"/>
			<rect x="0" y="150.236" width="11.3386" height="5.66929" class="st8"/>
			<text x="1.92" y="154.57" class="st9" v:langID="1042"><v:paragraph v:horizAlign="1"/><v:tabList/>F/F</text>		</g>
		<g id="shape6-25" v:mID="6" v:groupContext="shape" transform="translate(239.528,15.5905) rotate(90)">
			<title>시트.6</title>
			<path d="M0 155.91 L34.02 155.91" class="st7"/>
		</g>
		<g id="shape7-28" v:mID="7" v:groupContext="shape" transform="translate(77.9528,-140.315)">
			<title>시트.7</title>
			<desc>F/F</desc>
			<v:textBlock v:margins="rect(0,0,0,0)" v:tabSpace="42.5197"/>
			<v:textRect cx="5.66929" cy="153.071" width="11.34" height="5.66929"/>
			<rect x="0" y="150.236" width="11.3386" height="5.66929" class="st8"/>
			<text x="1.92" y="154.57" class="st9" v:langID="1042"><v:paragraph v:horizAlign="1"/><v:tabList/>F/F</text>		</g>
		<g id="shape8-31" v:mID="8" v:groupContext="shape" transform="translate(38.2677,-100.63)">
			<title>시트.8</title>
			<path d="M0 155.91 L22.68 155.91" class="st7"/>
		</g>
		<g id="shape9-34" v:mID="9" v:groupContext="shape" transform="translate(-117.638,77.9527) rotate(-90)">
			<title>시트.9</title>
			<path d="M0 155.91 L9.85 155.91" class="st10"/>
		</g>
		<g id="shape10-40" v:mID="10" v:groupContext="shape" transform="translate(-117.638,69.4488) rotate(-90)">
			<title>시트.10</title>
			<path d="M0 155.91 L14.17 155.91" class="st7"/>
		</g>
		<g id="shape11-43" v:mID="11" v:groupContext="shape" transform="translate(15.5906,-77.9528)">
			<title>시트.11</title>
			<path d="M0 155.91 L22.68 155.91" class="st7"/>
		</g>
		<g id="shape12-46" v:mID="12" v:groupContext="shape" transform="translate(216.85,55.2756) rotate(90)">
			<title>시트.12</title>
			<path d="M0 155.91 L22.68 155.91" class="st7"/>
		</g>
		<g id="shape13-49" v:mID="13" v:groupContext="shape" transform="translate(83.622,-100.63)">
			<title>시트.13</title>
			<path d="M0 155.91 L22.68 155.91" class="st7"/>
		</g>
		<g id="shape14-52" v:mID="14" v:groupContext="shape" transform="translate(-72.2835,77.9527) rotate(-90)">
			<title>시트.14</title>
			<path d="M0 155.91 L9.85 155.91" class="st10"/>
		</g>
		<g id="shape15-57" v:mID="15" v:groupContext="shape" transform="translate(-72.2835,69.4488) rotate(-90)">
			<title>시트.15</title>
			<path d="M0 155.91 L14.17 155.91" class="st7"/>
		</g>
		<g id="shape16-60" v:mID="16" v:groupContext="shape" transform="translate(60.9449,-77.9528)">
			<title>시트.16</title>
			<path d="M0 155.91 L22.68 155.91" class="st7"/>
		</g>
		<g id="shape17-63" v:mID="17" v:groupContext="shape" transform="translate(262.205,55.2756) rotate(90)">
			<title>시트.17</title>
			<path d="M0 155.91 L22.68 155.91" class="st7"/>
		</g>
		<g id="shape18-66" v:mID="18" v:groupContext="shape" transform="translate(26.9291,-147.402)">
			<title>시트.18</title>
			<desc>From</desc>
			<v:textBlock v:margins="rect(0,0,0,0)" v:tabSpace="42.5197"/>
			<v:textRect cx="11.3386" cy="153.071" width="22.68" height="5.66929"/>
			<rect x="0" y="150.236" width="22.6772" height="5.66929" class="st8"/>
			<text x="5.09" y="154.57" class="st9" v:langID="1042"><v:paragraph v:horizAlign="1"/><v:tabList/>From</text>		</g>
		<g id="shape19-69" v:mID="19" v:groupContext="shape" transform="translate(72.2835,-147.402)">
			<title>시트.19</title>
			<desc>To</desc>
			<v:textBlock v:margins="rect(0,0,0,0)" v:tabSpace="42.5197"/>
			<v:textRect cx="11.3386" cy="153.071" width="22.68" height="5.66929"/>
			<rect x="0" y="150.236" width="22.6772" height="5.66929" class="st8"/>
			<text x="8.28" y="154.57" class="st9" v:langID="1042"><v:paragraph v:horizAlign="1"/><v:tabList/>To</text>		</g>
		<g id="shape20-72" v:mID="20" v:groupContext="shape" transform="translate(41.1024,-103.496)">
			<title>시트.20</title>
			<desc>Data path</desc>
			<v:textBlock v:margins="rect(4,4,4,4)" v:tabSpace="42.5197"/>
			<v:textRect cx="19.3326" cy="137.496" width="38.67" height="36.8189"/>
			<path d="M7.09 124.78 C7.46 124.4 7.75 124.1 8.05 123.76 C9.85 121.78 12.09 118.65 14.31 119.09 C15.86 119.39 17.41 121.45
						 18.8 122.69 C20.67 124.35 22.26 124.53 24.95 123.65 C27.63 122.77 31.39 120.82 33.61 121.73 C35.67 122.56
						 36.38 125.86 36.27 128.59 C36.18 130.93 35.48 132.85 35.4 134.53 C35.28 137.27 36.8 139.38 37.91 142.49
						 C38.55 144.28 39.05 146.39 38.26 147.48 C37.47 148.55 35.42 148.62 33.93 149.24 C30.56 150.67 30.1 154.97
						 26.81 155.77 C24.59 156.31 21.06 155.25 18.02 154.44 C15.39 153.74 13.12 153.24 10.25 153.67 C8.44 153.95
						 6.39 154.6 4.78 154.71 C0.95 154.98 -0.35 152.21 0.08 149.3 C0.36 147.4 1.38 145.45 2.02 142.93 C2.37 141.58
						 2.61 140.06 2.41 138.58 C2.1 136.33 0.77 134.15 0.44 132.48 C-0.33 128.49 4.54 127.34 7.09 124.78 Z"
					class="st11"/>
			<text x="10.22" y="138.7" class="st12" v:langID="1042"><v:paragraph v:horizAlign="1"/><v:tabList/>Data path</text>		</g>
		<g id="shape21-75" v:mID="21" v:groupContext="shape" transform="translate(38.2677,-55.2756)">
			<title>시트.21</title>
			<path d="M0 155.91 L22.68 155.91" class="st7"/>
		</g>
		<g id="shape22-78" v:mID="22" v:groupContext="shape" transform="translate(-117.638,123.307) rotate(-90)">
			<title>시트.22</title>
			<path d="M0 155.91 L9.85 155.91" class="st10"/>
		</g>
		<g id="shape23-83" v:mID="23" v:groupContext="shape" transform="translate(-117.638,114.803) rotate(-90)">
			<title>시트.23</title>
			<path d="M0 155.91 L14.17 155.91" class="st7"/>
		</g>
		<g id="shape24-86" v:mID="24" v:groupContext="shape" transform="translate(15.5906,-32.5985)">
			<title>시트.24</title>
			<path d="M0 155.91 L22.68 155.91" class="st7"/>
		</g>
		<g id="shape25-89" v:mID="25" v:groupContext="shape" transform="translate(216.85,100.63) rotate(90)">
			<title>시트.25</title>
			<path d="M0 155.91 L22.68 155.91" class="st7"/>
		</g>
		<g id="shape26-92" v:mID="26" v:groupContext="shape" transform="translate(83.622,-55.2756)">
			<title>시트.26</title>
			<path d="M0 155.91 L22.68 155.91" class="st7"/>
		</g>
		<g id="shape27-95" v:mID="27" v:groupContext="shape" transform="translate(-72.2835,123.307) rotate(-90)">
			<title>시트.27</title>
			<path d="M0 155.91 L9.85 155.91" class="st10"/>
		</g>
		<g id="shape28-100" v:mID="28" v:groupContext="shape" transform="translate(-72.2835,114.803) rotate(-90)">
			<title>시트.28</title>
			<path d="M0 155.91 L14.17 155.91" class="st7"/>
		</g>
		<g id="shape29-103" v:mID="29" v:groupContext="shape" transform="translate(60.9449,-32.5985)">
			<title>시트.29</title>
			<path d="M0 155.91 L22.68 155.91" class="st7"/>
		</g>
		<g id="shape30-106" v:mID="30" v:groupContext="shape" transform="translate(128.976,-55.2756)">
			<title>시트.30</title>
			<path d="M0 155.91 L22.68 155.91" class="st7"/>
		</g>
		<g id="shape31-109" v:mID="31" v:groupContext="shape" transform="translate(-26.9291,123.307) rotate(-90)">
			<title>시트.31</title>
			<path d="M0 155.91 L9.85 155.91" class="st10"/>
		</g>
		<g id="shape32-114" v:mID="32" v:groupContext="shape" transform="translate(-26.9291,114.803) rotate(-90)">
			<title>시트.32</title>
			<path d="M0 155.91 L14.17 155.91" class="st7"/>
		</g>
		<g id="shape33-117" v:mID="33" v:groupContext="shape" transform="translate(106.299,-32.5985)">
			<title>시트.33</title>
			<path d="M0 155.91 L22.68 155.91" class="st7"/>
		</g>
		<g id="shape34-120" v:mID="34" v:groupContext="shape" transform="translate(307.559,100.63) rotate(90)">
			<title>시트.34</title>
			<path d="M0 155.91 L22.68 155.91" class="st7"/>
		</g>
		<g id="shape35-123" v:mID="35" v:groupContext="shape" transform="translate(174.331,-55.2756)">
			<title>시트.35</title>
			<path d="M0 155.91 L22.68 155.91" class="st7"/>
		</g>
		<g id="shape36-126" v:mID="36" v:groupContext="shape" transform="translate(18.4252,123.307) rotate(-90)">
			<title>시트.36</title>
			<path d="M0 155.91 L9.85 155.91" class="st10"/>
		</g>
		<g id="shape37-131" v:mID="37" v:groupContext="shape" transform="translate(18.4252,114.803) rotate(-90)">
			<title>시트.37</title>
			<path d="M0 155.91 L14.17 155.91" class="st7"/>
		</g>
		<g id="shape38-134" v:mID="38" v:groupContext="shape" transform="translate(151.654,-32.5985)">
			<title>시트.38</title>
			<path d="M0 155.91 L22.68 155.91" class="st7"/>
		</g>
		<g id="shape39-137" v:mID="39" v:groupContext="shape" transform="translate(352.913,100.63) rotate(90)">
			<title>시트.39</title>
			<path d="M0 155.91 L22.68 155.91" class="st7"/>
		</g>
		<g id="shape40-140" v:mID="40" v:groupContext="shape" transform="translate(39.685,-48.189)">
			<title>시트.40</title>
			<path d="M0 113.39 A2.83465 2.83465 0 0 1 2.83 116.22 L2.83 140.31 A2.83465 2.83465 -180 0 0 5.67 143.15 L24.09 143.15
						 A2.83465 2.83465 0 0 1 26.93 145.98 L26.93 153.07 A2.83465 2.83465 -180 0 0 29.76 155.91 L38.74 155.91"
					class="st1"/>
		</g>
		<g id="shape41-145" v:mID="41" v:groupContext="shape" transform="translate(42.5197,-60.9449)">
			<title>시트.41</title>
			<desc>Setup time(1)</desc>
			<v:textBlock v:margins="rect(0,0,0,0)" v:tabSpace="42.5197"/>
			<v:textRect cx="13.4646" cy="153.071" width="26.93" height="5.66928"/>
			<rect x="0" y="150.236" width="26.9291" height="5.66928" class="st8"/>
			<text x="3.96" y="153.97" class="st13" v:langID="1042"><v:paragraph v:horizAlign="1"/><v:tabList/>Setup time(1)</text>		</g>
		<g id="shape42-148" v:mID="42" v:groupContext="shape" transform="translate(134.646,-60.9449)">
			<title>시트.42</title>
			<desc>New Setup time(3)</desc>
			<v:textBlock v:margins="rect(0,0,0,0)" v:tabSpace="42.5197"/>
			<v:textRect cx="11.3386" cy="151.654" width="22.68" height="8.50393"/>
			<rect x="0" y="147.402" width="22.6772" height="8.50393" class="st8"/>
			<text x="8.25" y="150.75" class="st14" v:langID="1042"><v:paragraph v:horizAlign="1"/><v:tabList/>New<v:newlineChar/><tspan
						x="1.84" dy="1.2em" class="st15">Setup time(3)</tspan></text>		</g>
		<g id="shape43-152" v:mID="43" v:groupContext="shape" transform="translate(32.5984,-36.8504)">
			<title>시트.43</title>
			<rect x="0" y="99.2126" width="56.6929" height="56.6929" rx="2.83465" ry="2.83465" class="st16"/>
		</g>
		<g id="shape44-154" v:mID="44" v:groupContext="shape" transform="translate(31.1811,-35.4331)">
			<title>시트.44</title>
			<rect x="0" y="96.378" width="148.819" height="59.5276" rx="2.83465" ry="2.83465" class="st17"/>
		</g>
		<g id="shape45-156" v:mID="45" v:groupContext="shape" transform="translate(7.08661,-62.3622)">
			<title>시트.45</title>
			<desc>Default constraint</desc>
			<v:textBlock v:margins="rect(0,0,0,0)" v:tabSpace="42.5197"/>
			<v:textRect cx="11.3386" cy="152.362" width="22.68" height="7.08661"/>
			<rect x="0" y="148.819" width="22.6772" height="7.08661" class="st8"/>
			<text x="6.25" y="151.46" class="st13" v:langID="1042"><v:paragraph v:horizAlign="1"/><v:tabList/>Default<v:newlineChar/><tspan
						x="4.09" dy="1.2em" class="st15">constraint</tspan></text>		</g>
		<g id="shape46-160" v:mID="46" v:groupContext="shape" transform="translate(26.9291,-66.6142)">
			<title>시트.46</title>
			<path d="M0 155.91 L1.89 155.91" class="st1"/>
		</g>
		<g id="shape47-165" v:mID="47" v:groupContext="shape" transform="translate(184.252,-62.3622)">
			<title>시트.47</title>
			<desc>Multi-cycle(3) constraint</desc>
			<v:textBlock v:margins="rect(0,0,0,0)" v:tabSpace="42.5197"/>
			<v:textRect cx="12.7559" cy="152.362" width="25.52" height="7.08661"/>
			<rect x="0" y="148.819" width="25.5118" height="7.08661" class="st8"/>
			<text x="3.17" y="151.46" class="st13" v:langID="1042"><v:paragraph v:horizAlign="1"/><v:tabList/>Multi-cycle(3)<v:newlineChar/><tspan
						x="5.5" dy="1.2em" class="st15">constraint</tspan></text>		</g>
		<g id="shape48-169" v:mID="48" v:groupContext="shape" transform="translate(185.669,-66.6142) scale(-1,1)">
			<title>시트.48</title>
			<path d="M0 155.91 L1.89 155.91" class="st1"/>
		</g>
		<g id="shape49-174" v:mID="49" v:groupContext="shape" transform="translate(262.205,100.63) rotate(90)">
			<title>시트.49</title>
			<path d="M0 155.91 L22.68 155.91" class="st7"/>
		</g>
		<g id="shape50-177" v:mID="50" v:groupContext="shape" transform="translate(97.7953,-126.142)">
			<title>시트.50</title>
			<desc>Requirement_delay è Data_path_delay è</desc>
			<v:textBlock v:margins="rect(0,0,0,0)" v:tabSpace="42.5197"/>
			<v:textRect cx="17.7165" cy="149.528" width="35.44" height="12.7559"/>
			<rect x="0" y="143.15" width="35.4331" height="12.7559" class="st18"/>
			<text x="3.72" y="148.61" class="st13" v:langID="1033"><v:paragraph v:horizAlign="2"/><v:tabList/>Requirement<tspan
						class="st15" v:langID="1042">_delay </tspan><tspan class="st19" v:langID="1042">è<v:newlineChar/></tspan><tspan
						x="7.55" dy="1.217em" class="st15" v:langID="1042">Data_path_delay </tspan><tspan class="st19"
						v:langID="1042">è</tspan></text>		</g>
		<g id="shape51-184" v:mID="51" v:groupContext="shape" transform="translate(134.646,-126.142)">
			<title>시트.51</title>
			<desc>Requirement_delay*N Data_path_delay</desc>
			<v:textBlock v:margins="rect(0,0,0,0)" v:tabSpace="42.5197"/>
			<v:textRect cx="17.7165" cy="149.528" width="35.44" height="12.7559"/>
			<rect x="0" y="143.15" width="35.4331" height="12.7559" class="st18"/>
			<text x="0" y="148.63" class="st14" v:langID="1033"><v:paragraph/><v:tabList/><tspan class="st20">Requirement</tspan><tspan
						class="st20" v:langID="1042">_delay*N<v:newlineChar/></tspan><tspan x="0" dy="1.2em" class="st21"
						v:langID="1042">Data_path_delay</tspan></text>		</g>
		<g id="shape52-190" v:mID="52" v:groupContext="shape" transform="translate(-58.1102,12.7559) rotate(-90) scale(-1,1)">
			<title>시트.52</title>
			<path d="M0 155.91 L26.93 155.91" class="st22"/>
		</g>
		<g id="shape53-193" v:mID="53" v:groupContext="shape" transform="translate(12.7559,12.7559) rotate(-90) scale(-1,1)">
			<title>시트.53</title>
			<path d="M0 155.91 L26.93 155.91" class="st22"/>
		</g>
		<g id="shape54-196" v:mID="54" v:groupContext="shape" transform="translate(97.7953,174.331) scale(1,-1)">
			<title>시트.54</title>
			<path d="M0 155.91 L70.87 155.91" class="st22"/>
		</g>
		<g id="shape55-199" v:mID="55" v:groupContext="shape" transform="translate(97.7953,-137.48)">
			<title>시트.55</title>
			<desc>Set Multi-cycle path</desc>
			<v:textBlock v:margins="rect(0,0,0,0)" v:tabSpace="42.5197"/>
			<v:textRect cx="35.4331" cy="153.071" width="70.87" height="5.66929"/>
			<rect x="0" y="150.236" width="70.8661" height="5.66929" class="st8"/>
			<text x="11.96" y="154.57" class="st9" v:langID="1042"><v:paragraph v:horizAlign="1"/><v:tabList/>Set Multi-cycle path</text>		</g>
		<g id="shape56-202" v:mID="56" v:groupContext="shape" transform="translate(97.7953,168.661) scale(1,-1)">
			<title>시트.56</title>
			<path d="M0 155.91 L70.87 155.91" class="st22"/>
		</g>
		<g id="shape57-205" v:mID="57" v:groupContext="shape" transform="translate(97.7953,184.252) scale(1,-1)">
			<title>시트.57</title>
			<path d="M0 155.91 L70.87 155.91" class="st22"/>
		</g>
		<g id="shape58-208" v:mID="58" v:groupContext="shape" transform="translate(97.7953,-121.89)">
			<title>시트.58</title>
			<desc>Increasing slack time</desc>
			<v:textBlock v:margins="rect(0,0,0,0)" v:tabSpace="42.5197"/>
			<v:textRect cx="35.4331" cy="153.071" width="70.87" height="5.66929"/>
			<rect x="0" y="150.236" width="70.8661" height="5.66929" class="st18"/>
			<text x="20.26" y="153.97" class="st13" v:langID="1042"><v:paragraph v:horizAlign="1"/><v:tabList/>Increasing slack time</text>		</g>
		<g id="shape59-211" v:mID="59" v:groupContext="shape" transform="translate(97.7953,189.921) scale(1,-1)">
			<title>시트.59</title>
			<path d="M0 155.91 L70.87 155.91" class="st22"/>
		</g>
		<g id="shape60-214" v:mID="60" v:groupContext="shape" transform="translate(97.7953,-116.221)">
			<title>시트.60</title>
			<desc>Increasing Frequency</desc>
			<v:textBlock v:margins="rect(0,0,0,0)" v:tabSpace="42.5197"/>
			<v:textRect cx="35.4331" cy="153.071" width="70.87" height="5.66929"/>
			<rect x="0" y="150.236" width="70.8661" height="5.66929" class="st18"/>
			<text x="19.93" y="153.97" class="st13" v:langID="1042"><v:paragraph v:horizAlign="1"/><v:tabList/>Increasing Frequency</text>		</g>
		<g id="shape61-217" v:mID="61" v:groupContext="shape" transform="translate(97.7953,195.591) scale(1,-1)">
			<title>시트.61</title>
			<path d="M0 155.91 L70.87 155.91" class="st22"/>
		</g>
		<g id="shape62-220" v:mID="62" v:groupContext="shape" transform="translate(15.5906,0)">
			<title>시트.62</title>
			<desc>Ex.) TCL Script with Multi-cycle(3) template design # multicy...</desc>
			<v:textBlock v:margins="rect(0,0,0,0)" v:tabSpace="42.5197"/>
			<v:textRect cx="92.126" cy="144.567" width="184.26" height="22.6772"/>
			<rect x="0" y="133.228" width="184.252" height="22.6772" class="st18"/>
			<text x="0" y="138.87" class="st9" v:langID="1042"><v:paragraph/><v:tabList/>Ex.) TCL Script with Multi-cycle(3) template design<v:newlineChar/><tspan
						x="0" dy="1.4em" class="st23">     </tspan><tspan class="st23" v:langID="1033"># multicycle path #3<v:newlineChar/><v:newlineChar/></tspan><tspan
						x="0" dy="2.4em" class="st24">     </tspan><tspan class="st24" v:langID="1033">set_multicycle_path </tspan><tspan
						class="st24" v:langID="1033">-</tspan><tspan class="st24" v:langID="1033">hold  </tspan><tspan class="st24"
						v:langID="1033">-</tspan><tspan class="st24" v:langID="1033">from [get_cells </tspan><tspan class="st24"
						v:langID="1033">-</tspan><tspan class="st24" v:langID="1033">hierarchical </tspan><tspan class="st24"
						v:langID="1033">-</tspan><tspan class="st24" v:langID="1033">filter {NAME =~ &#34;*gen_multicycle.path_2.i_*&#34;}] </tspan><tspan
						class="st24">2<v:newlineChar/></tspan><tspan x="0" dy="1.2em" class="st25">     </tspan><tspan class="st25"
						v:langID="1033">set_multicycle_path </tspan><tspan class="st25" v:langID="1033">-</tspan><tspan
						class="st25" v:langID="1033">setup </tspan><tspan class="st25" v:langID="1033">-</tspan><tspan class="st25"
						v:langID="1033">from [get_cells </tspan><tspan class="st25" v:langID="1033">-</tspan><tspan class="st25"
						v:langID="1033">hierarchical </tspan><tspan class="st25" v:langID="1033">-</tspan><tspan class="st25"
						v:langID="1033">filter {NAME =~ &#34;*gen_multicycle.path_2.i_*&#34;}] </tspan><tspan class="st25">3</tspan></text>		</g>
		<g id="shape63-247" v:mID="63" v:groupContext="shape" transform="translate(79.3701,161.575) rotate(180)">
			<title>시트.63</title>
			<path d="M2.58 155.91 L2.94 155.91 L31.08 155.91" class="st26"/>
		</g>
		<g id="shape64-256" v:mID="64" v:groupContext="shape" transform="translate(48.189,-144.567)">
			<title>시트.64</title>
			<desc>1 cycle latency</desc>
			<v:textBlock v:margins="rect(0,0,0,0)" v:tabSpace="42.5197"/>
			<v:textRect cx="14.1732" cy="153.071" width="28.35" height="5.66929"/>
			<rect x="0" y="150.236" width="28.3465" height="5.66929" class="st8"/>
			<text x="3.58" y="153.97" class="st13" v:langID="1042"><v:paragraph v:horizAlign="1"/><v:tabList/>1 cycle latency</text>		</g>
		<g id="shape65-259" v:mID="65" v:groupContext="shape" transform="translate(174.331,282.047) rotate(180)">
			<title>시트.65</title>
			<path d="M2.58 155.91 L2.94 155.91 L133.12 155.91" class="st26"/>
		</g>
		<g id="shape66-266" v:mID="66" v:groupContext="shape" transform="translate(49.6063,-24.0945)">
			<title>시트.66</title>
			<desc>3 cycle latency</desc>
			<v:textBlock v:margins="rect(0,0,0,0)" v:tabSpace="42.5197"/>
			<v:textRect cx="56.6929" cy="153.071" width="113.39" height="5.66929"/>
			<rect x="0" y="150.236" width="113.386" height="5.66929" class="st8"/>
			<text x="46.1" y="153.97" class="st13" v:langID="1042"><v:paragraph v:horizAlign="1"/><v:tabList/>3 cycle latency</text>		</g>
		<g id="shape67-269" v:mID="67" v:groupContext="shape" transform="translate(18.4252,124.724) rotate(-90) scale(-1,1)">
			<title>시트.67</title>
			<path d="M0 155.91 L2.83 155.91" class="st22"/>
		</g>
		<g id="shape68-272" v:mID="68" v:groupContext="shape" transform="translate(-117.638,124.724) rotate(-90) scale(-1,1)">
			<title>시트.68</title>
			<path d="M0 155.91 L2.83 155.91" class="st22"/>
		</g>
		<g id="shape69-275" v:mID="69" v:groupContext="shape" transform="translate(106.299,-103.465)">
			<title>시트.69</title>
			<desc>Expand slack time to 3 cycle latency</desc>
			<v:textBlock v:margins="rect(0,0,0,0)" v:tabSpace="42.5197"/>
			<v:textRect cx="31.1811" cy="153.071" width="62.37" height="5.66929"/>
			<rect x="0" y="150.236" width="62.3622" height="5.66929" class="st8"/>
			<text x="5.25" y="153.97" class="st28" v:langID="1042"><v:paragraph v:horizAlign="1"/><v:tabList/>Expand slack time to 3 cycle latency</text>		</g>
		<g id="shape70-278" v:mID="70" v:groupContext="shape" transform="translate(39.685,-48.189)">
			<title>시트.70</title>
			<path d="M3.42 155.91 L3.78 155.91 L5.67 155.91 A2.83465 2.83465 -180 0 0 8.5 153.07 L8.5 145.98 A2.83465 2.83465 -90
						 0 0 5.67 143.15" class="st29"/>
		</g>
		<g id="shape71-284" v:mID="71" v:groupContext="shape" transform="translate(46.7717,-45.3543)">
			<title>시트.71</title>
			<desc>Hold time(0)</desc>
			<v:textBlock v:margins="rect(0,0,0,0)" v:tabSpace="42.5197"/>
			<v:textRect cx="7.08661" cy="150.945" width="14.18" height="9.92126"/>
			<rect x="0" y="145.984" width="14.1732" height="9.92126" class="st8"/>
			<text x="3.75" y="150.05" class="st13" v:langID="1042"><v:paragraph v:horizAlign="1"/><v:tabList/>Hold<v:newlineChar/><tspan
						x="2.17" dy="1.2em" class="st15">time(0)</tspan></text>		</g>
		<g id="shape72-288" v:mID="72" v:groupContext="shape" transform="translate(106.299,-41.1024)">
			<title>시트.72</title>
			<desc>New Hold time(3-1)</desc>
			<v:textBlock v:margins="rect(0,0,0,0)" v:tabSpace="42.5197"/>
			<v:textRect cx="11.3386" cy="148.819" width="22.68" height="14.1732"/>
			<rect x="0" y="141.732" width="22.6772" height="14.1732" class="st8"/>
			<text x="8.25" y="146.12" class="st30" v:langID="1042"><v:paragraph v:horizAlign="1"/><v:tabList/>New<v:newlineChar/><tspan
						x="8.01" dy="1.2em" class="st15">Hold<v:newlineChar/></tspan><tspan x="5.09" dy="1.2em" class="st15">time(3</tspan>-1)</text>		</g>
		<g id="shape73-293" v:mID="73" v:groupContext="shape" transform="translate(127.559,270.709) rotate(180)">
			<title>시트.73</title>
			<path d="M0 155.91 L84.09 155.91" class="st31"/>
		</g>
	</g>
</svg>
